<svg version="1.2" xmlns="http://www.w3.org/2000/svg" viewBox="0 0 2500 2500" width="2500" height="2500">
	<defs>
		<clipPath clipPathUnits="userSpaceOnUse" id="cp1">
			<path d="m2500 2500h-2500v-2500h2500z"/>
		</clipPath>
	</defs>
	<style>
		.s0 { fill: #ffffff } 
		.s1 { fill: #49507a } 
	</style>
	<g id="Camada 1">
		<path id="&lt;Path&gt;" class="s0" d="m2500 2500h-2500v-2500h2500z"/>
		<g id="&lt;Clip Group&gt;" clip-path="url(#cp1)">
			<g id="&lt;Group&gt;">
				<g id="&lt;Group&gt;">
					<path id="&lt;Path&gt;" class="s1" d="m2560.25-37.72c-189.9-7.95-401.22 8.1-544.25 149.05-61.61 60.71-101.02 141.14-104.62 228.15-3.53 85.59 30.13 164.08 94.39 220.5 64.4 56.54 145.08 89.98 211.17 144.22 73.27 60.14 122.4 150.01 125.35 245.61 2.77 89.84-38.81 180.67-111.39 234.53-80.41 59.66-183.99 54.28-275.2 85.58-74.6 25.6-144.2 79.66-144.57 165.21-0.38 90.57 65.21 161.78 138.14 206.29 81.86 49.97 177.07 76.24 253.54 135.34 72.45 56.01 110.71 140.72 107.05 232.11-3.54 88.59-47.07 170.31-118.96 222.23-69.82 50.41-160.06 72.47-245.24 59.37-85.49-13.15-163.24-60.67-219.36-125.71-28.63-33.18-53.07-71.92-68.22-113.19-12.71-34.63-21.18-85.6 8.89-114.13 32.95-31.26 84.48-8.83 104.27 26.3 25.17 44.67-0.37 100.59-31.61 134.87-34.05 37.35-79.85 60.92-120.17 90.5-30.93 22.69-58.93 49.19-83.35 78.76-99 119.85-140.33 285.81-108.84 438.07 7.65 36.96 19.81 72.77 36.01 106.85 2.48 5.23 10.25 0.67 7.77-4.54-72.12-151.76-54.98-337.24 32.3-479.16 21.7-35.29 47.78-67.85 77.85-96.37 34.71-32.94 75.42-56.93 114.16-84.57 36.58-26.1 70.23-57.42 86.37-100.41 13.52-36.02 11.39-78-16.34-106.67-22.32-23.09-59.12-36.52-89.4-21.06-32.28 16.48-40.71 54.5-37.39 87.79 3.94 39.38 21.91 76.74 42.37 110.09 22.07 35.98 49.82 68.55 81.89 96 63.11 54.03 143.3 88.02 226.87 89.19 82.18 1.14 165.16-27.64 227.55-81.42 130.59-112.55 137.3-327.99 4.16-441.33-74.25-63.2-169.84-90.68-253.42-138.31-81.8-46.62-164.32-129.97-145.47-233.08 18.06-98.78 127.56-133.15 212.8-149.67 49.3-9.56 99.64-16.99 146.21-36.67 40.32-17.04 75.6-43.76 103.26-77.68 54.41-66.72 76.63-154.56 61.92-239.2-15.6-89.82-68.67-167.51-140.98-221.6-70.37-52.64-154.93-87.34-216-152-66.41-70.31-83.45-170.72-58.46-262.52 25.04-91.95 91.42-165.52 171.73-214.2 88.92-53.89 192-76.82 294.84-83.55 54.06-3.54 108.28-2.84 162.38-0.57 5.79 0.24 5.78-8.76 0-9z"/>
				</g>
			</g>
			<g id="&lt;Group&gt;">
				<g id="&lt;Group&gt;">
					<path id="&lt;Path&gt;" class="s1" d="m2530.8 47c-56.12-1.2-112.47 6.08-167.07 18.79-55.86 13.01-111.38 32.02-161.24 60.7-46.36 26.66-95.65 66.64-110.39 120.41-13.21 48.23 11.85 91.03 52.04 116.42 43.39 27.42 94.7 38.02 140.22 60.98 52.81 26.65 96.35 68.86 128.98 117.84 32.87 49.34 55.84 105.71 67.67 163.78 12.97 63.64 11.93 136.36-30.05 189.65-37.34 47.39-97.41 69.92-154.77 81.5-69.78 14.09-144.05 16.08-213.01-3.34-59.51-16.77-115.13-51-152.54-100.81-32.15-42.83-56.23-106.67-29.25-158.07 28.82-54.91 96.93-42.3 131.62-1.03 43.31 51.53 17.76 122.85-21.93 168.07-82.94 94.52-238.81 108.88-292.59 232.5-22.75 52.3-12 109.75 20.81 155.22 35.83 49.63 90.01 78.87 147.71 95.94 31.44 9.3 63.74 15.27 96.06 20.56 24.88 4.07 51.88 9.68 76.69 2.23 50.86-15.28 40.46-78.85-2.13-97.7-48.36-21.42-112.33 3.36-154.39 29.04-45.33 27.67-82.71 68.66-106.2 116.28-48.59 98.51-27.68 215.34 44.9 296.36 73.38 81.91 188.09 107.76 290.72 69.89 48.57-17.93 92.39-48.88 123.46-90.52 30.04-40.25 50.43-107.5-1.89-139.67-44.33-27.25-108.38-15.79-153.6 3.03-49.98 20.8-92.8 57.12-123.87 101.23-75.13 106.69-69.88 249.89-27.58 368.17 22.98 64.25 56.39 124.19 93.76 181.09 19.09 29.06 39.22 57.43 59.77 85.46 16.08 21.95 33.63 43.96 56.67 58.99 20.15 13.14 44.97 19.09 68.19 10.72 22.78-8.2 39.17-28.05 48.48-49.78 19.24-44.93 8.4-96.95-19.31-135.85-28.38-39.83-72.62-68.08-120.11-79.12-50.49-11.73-102.41-1.64-147.37 23.39-103.38 57.56-152.91 174.24-160.68 287.73-4.69 68.35 3.47 136.83 15 204.11 0.98 5.7 9.65 3.29 8.68-2.39-21.59-125.96-31.53-266.82 38.51-380.28 55.24-89.47 160.5-155.39 266.6-117 47.01 17.01 89.68 52.45 109 99.28 18.74 45.47 13.82 114.9-36.16 139.08-59.91 28.99-108.73-47.79-137.39-87.79-37.71-52.65-73.64-106.87-102.63-164.88-57.62-115.28-87.45-254.64-37.45-378.2 40.24-99.43 149.3-190.44 262.5-171.32 31.06 5.25 59.59 23.69 62.51 57.53 2.56 29.62-12.13 58.88-29.4 81.93-31.85 42.52-78.06 73.55-128.35 89.94-50.77 16.56-106.44 18.67-157.71 3.06-51.93-15.81-97.42-49.92-129.64-93.34-31.77-42.81-51.64-94.84-53.63-148.31-1.99-53.22 14.59-105.52 44.09-149.6 30.09-44.97 73.86-81.48 124.35-101.29 26.07-10.23 55.61-17.92 83.76-14.68 29.07 3.36 62.93 27.96 53.48 61.48-8.19 29.05-44.72 29.98-69.1 27.48-30.67-3.14-61.64-9.27-91.69-16.1-60.12-13.64-120.16-36.48-162.51-83.11-39.82-43.84-59.26-104.53-36.18-161.24 23.26-57.16 76.52-95.03 128.45-124.14 53.52-30 111.99-55.26 155.38-99.96 35.73-36.81 63.39-88.49 53.98-141.24-7.42-41.56-43.75-78.03-85.1-86.25-42.95-8.52-80.29 18.74-91.98 59.76-28.96 101.63 64.87 198.65 149.75 236.51 56.96 25.4 120.3 33.32 182.2 29.95 56.38-3.07 114.68-13.32 165.96-37.79 48.6-23.19 87.33-61.67 103.58-113.78 17.03-54.62 10.34-114.52-4.4-168.84-27.15-99.98-86.46-196.64-177.42-250.02-42.24-24.78-90.39-36.13-134.19-57.54-45.65-22.31-85.24-61.64-71.12-116.96 14.27-55.93 68.01-96.14 116.29-122.21 49.13-26.53 102.99-44.18 157.37-56.24 51.38-11.4 104.15-17.82 156.83-16.69 5.79 0.12 5.79-8.88 0-9z"/>
				</g>
			</g>
			<g id="&lt;Group&gt;">
				<g id="&lt;Group&gt;">
					<path id="&lt;Path&gt;" class="s1" d="m1312.65 2623.69c-44.48-152.32-2.42-310.78 43.42-457.41 22.85-73.09 47.06-145.95 63.32-220.87 7.82-36.06 13.78-72.58 16.79-109.38 2.6-31.66 2.96-65.67-12.05-94.63-19.89-38.37-88.84-64.49-111.17-13.57-8.27 18.85-3.92 41.51 6.69 58.55 12.8 20.56 34.07 31.6 58.22 31.43 59.84-0.4 102.45-56.87 116.08-109.93 14.99-58.37 3.73-121.68-18.03-176.84-26.13-66.28-66.35-125.72-95.08-190.78-27.44-62.15-40.01-128.99-35.64-196.88 4.22-65.62 23.68-130.38 57.03-187.09 33.54-57.02 83.27-112.57 147.81-133.73 61.51-20.18 142.24-2.01 165.72 64.81 9.68 27.57 8.43 60.07-8.78 84.48-18.34 26.02-50.62 36.61-81.4 35.22-70-3.15-114.78-62.9-141.57-121.5-24.76-54.16-41.14-112.52-50.55-171.25-37.43-233.59 40.2-485.12 206.18-654.3 20.09-20.48 41.46-39.62 63.9-57.47 4.53-3.61-1.87-9.94-6.36-6.37-183.75 146.18-286.01 382.08-281.73 615.37 1.06 58.19 8.78 116.34 23.51 172.65 15.2 58.1 36.37 119.43 73.41 167.44 33.8 43.8 85.91 73.27 142.44 62.31 54.54-10.57 84.88-61.75 73.48-115.17-12.17-57.06-64.55-90.52-120.55-93.16-62.93-2.96-119.38 31.79-161.16 76.23-86.18 91.64-124.47 224.23-107.14 348.09 9.55 68.19 38.6 129.14 70.97 189.14 33.1 61.38 68.05 123.19 78.28 193.22 9.39 64.3-3.13 142.36-61.84 180.46-26.81 17.4-66.2 24.86-90.93-0.13-17.68-17.86-26.91-51.75-7.66-71.92 23.4-24.5 64.29-8.81 81.78 14.85 22.39 30.28 19.81 72.3 16.51 107.77-7.19 77.39-27.36 152.86-49.92 227-44.43 146.05-100.5 294.47-90.95 449.8 2.21 35.9 8.21 71.41 18.29 105.95 1.62 5.55 10.31 3.19 8.68-2.39z"/>
				</g>
			</g>
			<g id="&lt;Group&gt;">
				<g id="&lt;Group&gt;">
					<path id="&lt;Path&gt;" class="s1" d="m1799.15-29c-7.13 86.04-32.56 171.89-71.27 248.94-19.28 38.36-42.33 75.26-70.88 107.44-29.94 33.74-66.63 61.08-105.65 83.46-84.3 48.36-182.59 72.21-279.7 66.66-48.66-2.79-105.2-11.88-137.59-52.34-29.63-37.01-27.97-90.81 16.21-115.08 39.49-21.7 85.62-9.22 114.64 23.5 35.24 39.74 40.43 95.21 31.06 145.55-7.13 38.28-21.59 75.08-34.21 111.83-10.84 31.58-21.99 63.07-34.19 94.16-46.44 118.35-116.84 262.55-252.06 295.54-34.88 8.51-74.24 9.88-109.22 1.13-18.75-4.69-37.67-14.22-42.12-34.7-5.12-23.55 2.19-53.81 13.6-74.57 21.84-39.75 70.09-62.31 109.49-32.09 32.42 24.86 46.74 68.44 57.94 106.04 25.87 86.81 55.16 198.64-9.32 276.15-49.15 59.1-117.44 99.11-175.89 147.94-58.07 48.5-111.54 105.39-142.66 175.24-28.93 64.97-35.97 136.2-32.44 206.63 2.08 41.57 5.43 84.82 15.92 125.21 9.11 35.09 25.5 71.4 56.16 92.69 35.59 24.73 79.47 18.54 115.91-0.74 21.09-11.15 40.16-25.9 58.24-41.36 17.05-14.59 34.28-29.88 46.85-48.65 19.72-29.44 18.92-69.51-15.78-86.8-31.22-15.56-67.28-6.5-91.71 16.87-29.44 28.19-44.37 71.21-55.45 109.48-10.95 37.8-17.46 78.21-13.21 117.57 3.79 35.11 17.05 69.47 44 93.28 33.34 29.46 78.16 35.32 119.97 44.59 47.59 10.54 87.76 31.15 117.53 70.73 29.25 38.9 44.22 86.21 49.52 134.16 5.89 53.4 0.77 107.31-4.21 160.56-0.54 5.76 8.46 5.73 9 0 9.4-100.39 17.83-211.75-45.41-297.72-26.25-35.68-61.5-59.86-104.17-71.57-45.9-12.59-98.41-14.25-135.86-47.11-65.67-57.61-44.09-164.7-17.16-235.95 15.73-41.62 42.43-94.18 94-93.59 19.18 0.21 40.62 8.25 49.55 26.44 12.97 26.41-5.61 53.98-23.2 72.81-33.21 35.55-79.5 75.16-128.91 83.41-50.96 8.52-88.68-26.69-106.89-70.85-16.81-40.75-20.71-86.33-24.16-129.87-3.16-40-3.7-80.4 1.17-120.29 9.17-75.04 40.6-143.15 89.48-200.6 53.2-62.53 120.61-107.67 183.98-158.75 30.02-24.2 61.41-49.94 83.37-82.02 25.11-36.68 31.9-83.89 29.68-127.41-2.6-50.86-16.36-100.62-31.09-149.11-10.82-35.64-25.29-74.83-53.96-100.17-27.79-24.56-66.59-27.25-96.92-5.4-33.76 24.31-51.04 70.4-46.59 111.3 4.04 37.09 42.91 47.68 74.37 51.12 34.8 3.8 70.49 1.05 103.94-9.53 131.64-41.63 199.48-184.34 245.61-303.3 12.52-32.3 23.96-65 35.16-97.78 13.43-39.33 28.6-78.55 33.75-120.03 5.68-45.72-1.76-93.28-30.68-130.29-23.05-29.49-58.21-47.84-96.05-42.81-35.34 4.68-68.91 28.85-75.26 65.47-6.97 40.21 17.91 79.29 50.92 100.22 40.9 25.94 93.24 30.37 140.52 30.63 47.96 0.27 96.03-6.45 142.16-19.51 86.99-24.62 172.71-72.2 231.34-142.09 56.64-67.51 93.67-151.66 116.6-236.18 10.52-38.78 17.91-78.43 21.23-118.49 0.47-5.77-8.53-5.74-9 0z"/>
				</g>
			</g>
			<g id="&lt;Group&gt;">
				<g id="&lt;Group&gt;">
					<path id="&lt;Path&gt;" class="s1" d="m1150.95-25.78c25.31 65.67 0.34 137.36-43.89 188.67-48.27 56-117.36 90.52-184.85 117.62-70.21 28.2-143.18 49.4-211.9 81.31-62.19 28.88-118.38 68.1-165.04 118.51-90.27 97.54-139.67 225.66-149.7 357.28-6.01 79 1.28 158.57 16.47 236.18 7.78 39.74 17.65 79.06 29.09 117.9 9.51 32.27 20.56 64.92 41.59 91.71 34.63 44.11 109.19 71.83 153.1 24.37 15.74-17.01 23.75-42.28 11.99-63.72-11.24-20.5-35.03-29.54-57.3-30.76-64.31-3.49-100.15 52.04-123.78 103.78-31.36 68.68-60.79 143.92-51.95 220.88 15.09 131.35 136.55 227.26 135.31 362.55-1.19 129.43-106.01 246.73-232.46 268.8-37.13 6.48-77.07 3.77-110.45-14.9-27.6-15.43-52.54-42.48-54.64-75.45-2.14-33.6 23.48-64.88 54.46-75.28 35.51-11.91 69.19 6.77 93.47 31.91 24.34 25.19 44.09 55.78 61.61 85.98 18.14 31.25 33.45 64.12 45.6 98.15 23.64 66.21 35.46 136.54 33.99 206.87-0.72 34.2-4.67 68.18-11.6 101.67-1.17 5.66 7.51 8.07 8.68 2.4 27.83-134.6 5.49-276.17-59.6-396.99-16.2-30.09-34.92-58.98-56.14-85.78-18.35-23.18-40.98-45.4-70.16-53.7-52.97-15.07-113.84 29.8-109.16 86.47 4.95 59.94 67.87 95.47 122.08 100.14 65.59 5.65 132.62-22.12 183.17-62.56 45.35-36.29 80.21-85.94 97.78-141.39 18.13-57.2 15.15-116.63-6.02-172.53-23.45-61.9-62.18-116.31-89.69-176.28-14.74-32.15-25.95-66.25-28.27-101.74-2.63-40.39 5.21-80.55 17.53-118.87 12.13-37.75 27.72-75.13 46.03-110.32 15.4-29.61 37.04-59.62 70.14-70.43 25.37-8.28 61.34-6.85 79.41 15.62 23.08 28.7-3.81 66.29-32.87 76.92-34.61 12.66-74.63-3.04-100.26-27.12-27.78-26.1-41.06-63.06-51.7-98.7-23.6-79.06-40.91-160.51-46.58-242.94-9.88-143.65 19.16-289.03 102.53-408.3 39.28-56.2 89.58-104.71 148.02-140.7 66.68-41.06 141.82-65.14 215.01-91.62 120.39-43.55 274.75-108.84 298.01-252.11 4.72-29.07 2.22-58.38-8.38-85.9-2.06-5.34-10.77-3.02-8.68 2.4z"/>
				</g>
			</g>
			<g id="&lt;Group&gt;">
				<g id="&lt;Group&gt;">
					<path id="&lt;Path&gt;" class="s1" d="m804.35-23.51c20.86 36.06 4.68 78.25-22 106.44-30.67 32.4-75.3 44.72-117.86 52.52-43.96 8.07-88.26 12.67-131.39 24.94-38.83 11.05-76.55 26.38-111.85 46-71.03 39.49-132.72 97.32-169.56 170.38-35.69 70.76-48.44 153.98-28.17 231.23 18.87 71.87 67.26 134.04 130.1 173.13 56.57 35.19 139.11 59.97 203.05 30.23 26.42-12.29 46.69-37.89 41.89-68.32-5.02-31.89-34.58-54.76-62.55-66.55-69.74-29.38-151.4 2.28-207.78 45.56-64.11 49.22-109.97 117.96-146 189.38-38.48 76.29-65.75 158.17-81.05 242.22-30.53 167.69-13.81 343.95 51.63 501.62 30.95 74.59 75.54 150.95 156.46 178.21 36.08 12.15 76.04 12.57 110.89-3.74 29.94-14.01 52.9-39.52 67.75-68.68 28.23-55.4 37.25-134.03 7.84-190.78-14.38-27.73-41.59-48.01-73.9-45.84-33.87 2.27-61.39 27.52-78.1 55.42-42.24 70.54-21.84 163.95 11.04 233.73 38.3 81.28 99.69 147.29 157.84 214.57 29.48 34.1 58.41 68.86 83.15 106.62 20.76 31.69 38.61 64.55 46.67 101.81 14.83 68.52 6.16 144.49-20.7 209-12.52 30.07-29.91 58.38-53.86 80.68-4.25 3.95 2.13 10.31 6.37 6.36 44.63-41.56 68-102.79 78.13-161.78 10.16-59.1 9.06-124.12-14.89-179.96-31.05-72.38-87.43-133.53-138.57-192.17-56.75-65.07-114.01-131.54-146.39-212.73-28.34-71.04-40.52-171.08 20.88-229.15 27.34-25.85 68.63-32.97 97.58-5.32 24 22.92 31.94 59.61 32.86 91.57 1.88 64.84-20.35 141.7-80.76 175.05-78.38 43.28-168.18-9.15-214-74.66-45.92-65.65-72.7-147.49-90.74-224.89-18.52-79.4-25.79-161.31-22.06-242.75 7.28-159.08 56.37-324.07 149.86-454.28 44-61.28 103.74-118.61 178.17-139.25 36.16-10.03 76.76-11.99 111.55 3.87 30.4 13.87 64.36 44.79 51.71 81.76-11.77 34.39-54.14 45.62-86.54 46.82-36.36 1.34-73.73-7.7-106.86-22.33-66.3-29.29-121.79-84.08-149.93-151.09-30.85-73.46-26.76-157.97 2.29-231.28 29.56-74.64 84.64-135.92 151.6-179.29 68.24-44.21 144.72-67.42 224.52-79.53 71.65-10.87 156.83-24.31 190.78-97.94 12.16-26.38 13.45-55.8-1.33-81.35-2.9-5.01-10.68-0.48-7.77 4.54z"/>
				</g>
			</g>
			<g id="&lt;Group&gt;">
				<g id="&lt;Group&gt;">
					<path id="&lt;Path&gt;" class="s1" d="m512.97-171.32c-113.27 57.36-199.06 175.4-194.58 305.58 2.1 61.24 23.1 122.06 60.75 170.55 43.2 55.64 104.99 84.3 171.02 104.14 69.17 20.79 144.41 35.16 201.94 81.9 48.65 39.52 79.97 111.62 48.19 171.44-14.1 26.55-42.59 46.87-73.84 40.91-16.44-3.14-29.84-15.91-29.73-33.48 0.11-17.89 14.91-32.41 28.67-41.76 27.84-18.94 62.59-22.89 95.45-23.95 34.09-1.1 68.21 3.1 101.19 11.71 135.39 35.36 243.39 138.82 300.18 264.58 62.51 138.46 69.63 298.76 47.94 447.34-10.77 73.84-31.77 150.56-81.32 208.36-22.54 26.29-50.32 48.37-81.87 62.86-14.94 6.86-30.78 11.94-46.99 14.77-15.5 2.71-40 8.1-50.52-6.89-8.5-12.11-7.33-29.81-0.67-42.43 8.5-16.11 26.69-22.62 44.21-21.26 39.29 3.05 63.51 36.93 78.39 69.95 17.13 38.01 31.69 78.62 42.6 118.85 11.1 40.91 17.02 84.13 8.59 126.12-13.24 65.95-58.33 118.07-104.44 164.4-46.43 46.64-95.3 90.48-132.55 145.23-75.51 111.02-108.56 250.36-92 383.5 4 32.12 10.91 63.72 20.6 94.6 1.73 5.51 10.42 3.16 8.68-2.39-45.44-144.8-26.12-306.76 49.7-438.01 37.9-65.63 91.15-116.3 144.45-169.11 47.47-47.04 95.17-99.28 111.96-165.81 21.04-83.38-12.3-169.49-43.09-246-12.59-31.27-29.03-64.36-60.2-80.71-23.9-12.53-57.85-15.27-77.71 6.26-15.14 16.41-18.84 45.57-4.56 63.69 17.33 22 58.74 10.21 81.4 3.26 69.93-21.43 123.34-77.8 153.81-142.75 33.57-71.56 44.25-152.54 49.14-230.71 4.97-79.29 1.13-159.55-15.47-237.37-31.15-145.96-111.35-279.59-242.71-355.41-60.09-34.68-128.71-55.87-198.39-55.79-32.1 0.03-67.22 2.79-96.37 17.23-23.2 11.5-50.06 33.75-46.74 62.62 2.9 25.27 26.32 38.93 50.13 38.37 27.3-0.63 50.63-16.16 65.32-38.59 32.89-50.22 18.13-120.67-18.8-164.35-48.18-56.97-123.45-79.15-192.61-98.53-78.8-22.07-157.24-47.32-208.38-115.49-43.03-57.36-62.78-131.7-54.83-202.88 8.3-74.23 46.69-143.06 100.14-194.38 26.2-25.16 56.08-46 88.46-62.4 5.17-2.62 0.62-10.38-4.54-7.77z"/>
				</g>
			</g>
			<g id="&lt;Group&gt;">
				<g id="&lt;Group&gt;">
					<path id="&lt;Path&gt;" class="s1" d="m204.68-20.71c-46.17 82.01-77.83 172.08-92.85 265-3.48 21.54-7.61 44.06-7.38 65.94 0.17 15.31 3.62 33.74 18.08 42.04 15.71 9.01 34.48-0.62 41.79-15.92 7.68-16.1 0.35-33.5-13.98-42.9-15.58-10.21-35.51-9.22-50.89 0.79-16.89 10.99-26.9 29.55-30.75 48.95-4.66 23.46-2.45 48.18 0.34 71.73 2.79 23.63 7.2 47.02 12.17 70.28 10.08 47.1 22.62 93.91 27.7 141.92 4.98 47.05 1.04 93.57-13.36 138.71-29.14 91.4-91.73 166.41-155.36 236.12q-12.04 13.16-24.15 26.26c-3.93 4.26 2.42 10.64 6.36 6.37 60.32-65.36 121.88-132.16 160.6-213.19 18.56-38.83 31.66-80.34 35.79-123.29 4.25-44.09-1.82-88.37-10.51-131.56-8.99-44.67-20.87-88.75-27.81-133.82-3.42-22.2-6.01-44.99-5.21-67.49 0.76-21.05 5.97-42.8 21.81-57.73 13.34-12.57 32.83-16.76 48.73-6.28 6.6 4.36 12.01 11.42 12.76 19.5 0.8 8.56-4.16 17.14-10.99 22.03-6.72 4.83-15.15 5.6-22.08 0.74-6.29-4.4-9.2-11.99-10.7-19.24-3.85-18.61 0.26-39.12 2.76-57.64 11.89-88.2 38.83-174.43 79.28-253.69q7.51-14.7 15.62-29.08c2.84-5.06-4.93-9.6-7.77-4.55z"/>
				</g>
			</g>
			<g id="&lt;Group&gt;">
				<g id="&lt;Group&gt;">
					<path id="&lt;Path&gt;" class="s1" d="m107.32 2571.78c26.13-9.13 46.27-29.97 57.54-54.96 12.5-27.72 13.52-58.52 6.56-87.89-16.1-67.92-68.26-117.57-109.27-171.13-38.81-50.67-71.73-105.81-98.23-163.87-26.56-58.15-46.57-119.31-59.72-181.86-13.21-62.78-19.37-127.02-18.09-191.18q0.24-11.69 0.8-23.37c0.28-5.79-8.72-5.78-9 0-2.98 62.71 1.15 125.67 11.95 187.52 10.84 62.16 28.49 123.14 52.46 181.52 23.84 58.05 53.79 113.57 89.65 165.1 18.6 26.73 39.13 51.84 59.79 76.99 21.71 26.42 43.01 53.66 57.62 84.79 13.54 28.87 21.63 62.26 15.46 94.08-5.1 26.26-19.52 51.81-42.15 66.76-5.55 3.66-11.49 6.63-17.76 8.82-5.44 1.9-3.1 10.6 2.39 8.68z"/>
				</g>
			</g>
			<g id="&lt;Group&gt;">
				<g id="&lt;Group&gt;">
					<path id="&lt;Path&gt;" class="s1" d="m2584.9 1015.75c-5.23 65.1-29.62 128.11-68.88 180.25-19.71 26.18-43.35 50.13-70.1 69.15-26.61 18.93-59.8 33.27-92.44 21.99-27.57-9.54-45.99-38.06-31.5-66.04 5.96-11.51 16.96-20.01 30.35-19.55 13.41 0.46 24.21 9.82 30.86 20.85 17.21 28.53 7.03 59.29-7.57 86.49-8.12 15.13-17.34 29.7-24.41 45.38-6.88 15.24-11.61 31.31-14 47.87-4.89 33.77 0.04 67.65 13.44 98.95 13.86 32.4 34.73 60.97 52.79 91.03 19.09 31.79 36.11 67.81 34.51 105.79-1.37 32.58-18.6 60.73-35.35 87.66-16.68 26.81-32.81 53.9-37.89 85.57-5.03 31.37-0.61 63.17 6.69 93.81 15.83 66.41 44.72 131.28 33.74 200.95-11.86 75.2-55.33 141.28-66.15 216.77-4.6 32.06-3.08 64.89 9.82 94.92 10.82 25.19 28.86 48.2 53 61.77 11.5 6.48 23.96 10.31 37.06 11.81 5.75 0.65 5.7-8.35 0-9-31.55-3.6-57.41-24.99-73.35-51.58-17.87-29.81-22.42-64.1-18.75-98.28 8.52-79.35 55.87-148.12 67.47-226.77 10.53-71.47-18.87-137.22-34.73-205.41-7.85-33.77-11.93-69.3-2.51-103.21 8.99-32.39 29.76-59.39 46.29-88.14 16.7-29.04 27.08-59.74 22.5-93.61-5.04-37.29-23.83-70.81-43.59-102.17-19.55-31.03-40.97-61.93-51.29-97.54-10.47-36.12-8.47-75.53 5.44-110.46 13.06-32.78 38.16-60.91 44.24-96.42 4.19-24.42-4.64-53.36-25.38-68.14-20.78-14.81-47.83-7.13-60.14 14.52-13.16 23.15-7.44 51.3 12.94 68.11 55.29 45.6 126.32-7.02 166.05-47.75 46.03-47.17 78.62-107.49 92.79-171.86 3.46-15.72 5.76-31.66 7.05-47.71 0.47-5.77-8.54-5.74-9 0z"/>
				</g>
			</g>
		</g>
	</g>
</svg>